{"title":"Despicable.Me.2.2013.BRRip.XviD-TODE","uid":9066729,"size":727987410,"categoryP":"video","categoryS":"movies","magnet":"?xt=urn:btih:89b97d437e507e2d6689d270ec0d25d751bec69b&amp;dn=Despicable.Me.2.2013.BRRip.XviD-TODE&amp;tr=udp%3A%2F%2Ftracker.openbittorrent.com%3A80&amp;tr=udp%3A%2F%2Fopen.demonii.com%3A1337&amp;tr=udp%3A%2F%2Ftracker.coppersurfer.tk%3A6969&amp;tr=udp%3A%2F%2Fexodus.desync.com%3A6969","seeders":2,"leechers":0,"uploader":"xxxlavalxxx","files":-1,"time":1382122237,"description":" &lt;a href=&quot;http://www.imdb.com/title/tt1690953/&quot; rel=&quot;nofollow&quot; target=&quot;_NEW&quot;&gt;http://www.imdb.com/title/tt1690953/&lt;/a&gt;\n\n\n\n\nGru is recruited by the Anti-Villain League to help deal with a powerful new super criminal. \n\n\n\nDirectors:\n Pierre Coffin, Chris Renaud \n\nWriters:\n Ken Daurio (screenplay), Cinco Paul (screenplay) \n\nStars:\n Steve Carell, Kristen Wiig, Benjamin Bratt\n\nGenres:\n  Animation |  Comedy |  Crime |  Family \n\nCountry:\n USA \n\nLanguage:\n English \n\n\nFormat                                   : AVI\nFormat/Info                              : Audio Video Interleave\nFile size                                : 694 MiB\nDuration                                 : 1h 37mn\nOverall bit rate                         : 991 Kbps\n\nVideo\nID                                       : 0\nFormat                                   : MPEG-4 Visual\nFormat profile                           : Advanced Simple@L5\nFormat settings, BVOP                    : 2\nFormat settings, QPel                    : No\nFormat settings, GMC                     : No warppoints\nFormat settings, Matrix                  : Default (H.263)\nCodec ID                                 : XVID\nCodec ID/Hint                            : XviD\nDuration                                 : 1h 37mn\nBit rate                                 : 857 Kbps\nWidth                                    : 720 pixels\nHeight                                   : 384 pixels\nDisplay aspect ratio                     : 1.85:1\nFrame rate                               : 23.976 fps\nColor space                              : YUV\nChroma subsampling                       : 4:2:0\nBit depth                                : 8 bits\nScan type                                : Progressive\nCompression mode                         : Lossy\nBits/(Pixel*Frame)                       : 0.129\nStream size                              : 600 MiB (86%)\nWriting library                          : XviD 1.2.1 (UTC 2008-12-04)\n\nAudio\nID                                       : 1\nFormat                                   : MPEG Audio\nFormat version                           : Version 1\nFormat profile                           : Layer 3\nMode                                     : Joint stereo\nCodec ID                                 : 55\nCodec ID/Hint                            : MP3\nDuration                                 : 1h 37mn\nBit rate mode                            : Constant\nBit rate                                 : 128 Kbps\nChannel(s)                               : 2 channels\nSampling rate                            : 48.0 KHz\nCompression mode                         : Lossy\nStream size                              : 89.7 MiB (13%)\nAlignment                                : Aligned on interleaves\nInterleave, duration                     : 167 ms (4.00 video frames)\nInterleave, preload duration             : 216 ms\nTitle                                    : T2_Audio - English\nWriting library                          : LAME3.99r\nEncoding settings                        : -m j -V 4 -q 2 -lowpass 17 -b 128\n\n\n &lt;a href=&quot;\nhttp://i.imgur.com/t7yY9ua.jpg&quot; rel=&quot;nofollow&quot; target=&quot;_NEW&quot;&gt;\nhttp://i.imgur.com/t7yY9ua.jpg&lt;/a&gt; &lt;a href=&quot;\nhttp://i.imgur.com/kLKwhbY.jpg&quot; rel=&quot;nofollow&quot; target=&quot;_NEW&quot;&gt;\nhttp://i.imgur.com/kLKwhbY.jpg&lt;/a&gt; &lt;a href=&quot;\nhttp://i.imgur.com/tTf7L9E.jpg&quot; rel=&quot;nofollow&quot; target=&quot;_NEW&quot;&gt;\nhttp://i.imgur.com/tTf7L9E.jpg&lt;/a&gt; &lt;a href=&quot;\nhttp://i.imgur.com/FDfx7ET.jpg&quot; rel=&quot;nofollow&quot; target=&quot;_NEW&quot;&gt;\nhttp://i.imgur.com/FDfx7ET.jpg&lt;/a&gt; &lt;a href=&quot;\nhttp://i.imgur.com/tLdSx2m.jpg&quot; rel=&quot;nofollow&quot; target=&quot;_NEW&quot;&gt;\nhttp://i.imgur.com/tLdSx2m.jpg&lt;/a&gt;","torrent":{"xt":"urn:btih:89b97d437e507e2d6689d270ec0d25d751bec69b","amp;dn":"Despicable.Me.2.2013.BRRip.XviD-TODE","amp;tr":["udp%3A%2F%2Ftracker.openbittorrent.com%3A80","udp%3A%2F%2Fopen.demonii.com%3A1337","udp%3A%2F%2Ftracker.coppersurfer.tk%3A6969","udp%3A%2F%2Fexodus.desync.com%3A6969"],"infoHash":"89b97d437e507e2d6689d270ec0d25d751bec69b","infoHashBuffer":{"type":"Buffer","data":[137,185,125,67,126,80,126,45,102,137,210,112,236,13,37,215,81,190,198,155]},"announce":[],"urlList":[]}}